<svg width="83" height="58" viewBox="0 0 83 58" fill="none" xmlns="http://www.w3.org/2000/svg">
<path d="M17.8693 24.892V56H0.504262V1.45454H17.017V11.4688H17.6207C18.8281 8.13068 20.8878 5.51468 23.7997 3.62074C26.7116 1.70312 30.1799 0.744319 34.2045 0.744319C38.0398 0.744319 41.366 1.60843 44.1832 3.33664C47.0242 5.04119 49.2259 7.43229 50.7884 10.5099C52.3745 13.5639 53.1558 17.1387 53.1321 21.2344V56H35.767V24.6435C35.7907 21.6132 35.0213 19.2457 33.4588 17.5412C31.92 15.8366 29.7775 14.9844 27.0312 14.9844C25.2083 14.9844 23.5985 15.3868 22.2017 16.1918C20.8286 16.973 19.7633 18.0975 19.0057 19.5653C18.2718 21.0331 17.893 22.8087 17.8693 24.892ZM73.6488 57.0298C71.092 57.0298 68.9021 56.1302 67.0792 54.331C65.2799 52.5317 64.3922 50.3537 64.4158 47.7969C64.3922 45.2874 65.2799 43.1449 67.0792 41.3693C68.9021 39.5701 71.092 38.6705 73.6488 38.6705C76.0636 38.6705 78.1942 39.5701 80.0408 41.3693C81.9111 43.1449 82.8581 45.2874 82.8817 47.7969C82.8581 49.5014 82.4083 51.0521 81.5323 52.4489C80.68 53.8456 79.5555 54.9583 78.1587 55.7869C76.7856 56.6155 75.2823 57.0298 73.6488 57.0298Z" fill="black"/>
</svg>
