<svg width="141" height="118" viewBox="0 0 141 118" fill="none" xmlns="http://www.w3.org/2000/svg">
<path fill-rule="evenodd" clip-rule="evenodd" d="M29.0003 79.6333C39.0261 83.3587 53.122 85.4825 67.0003 85.7708V71.4171V51.0847H66.9744C66.9916 50.7536 67.0003 50.4202 67.0003 50.0847C67.0003 39.5913 58.4937 31.0847 48.0003 31.0847C37.5068 31.0847 29.0003 39.5913 29.0003 50.0847C29.0003 50.4202 29.0089 50.7536 29.0261 51.0847H29.0003V59.4171V79.6333ZM24.0003 77.4638C18.3567 74.5846 14.8892 71.0047 14.8892 66.7945C14.8892 62.5842 18.3567 59.0043 24.0003 56.1251V77.4638ZM32.3708 31.871C33.1348 31.2148 33.9406 30.6058 34.7836 30.0486L33.3293 21.8936C32.7747 18.7839 34.4219 18.0083 36.4687 20.4141L41.9482 26.8543C43.8815 26.352 45.9097 26.0847 48.0003 26.0847C55.7327 26.0847 62.611 29.7415 67.0003 35.42V31.0847H67.0019C67.0527 26.4789 68.281 22.1761 70.3833 18.4872L66.9279 11.1148C65.5874 8.25459 66.9777 7.0791 69.5775 8.87316L75.0031 12.6172C75.843 11.8292 76.736 11.1024 77.6757 10.4433L76.3293 2.89364C75.7747 -0.216074 77.4219 -0.991686 79.4688 1.41411L84.3751 7.18077C86.4807 6.54722 88.7037 6.20806 91.0003 6.20806C103.807 6.20806 114.325 16.7549 114.969 30.0847H115V45.954C131.192 51.4585 140.655 60.2129 140.356 70.582C140.324 71.7246 140.18 72.9139 139.928 74.1393C110.104 92.0074 73.7227 97.8543 46.4839 99.6749C24.4015 93.9064 10.4136 85.108 1.75186 79.8064C0.631132 76.7051 0.0330732 73.6026 0.00100434 70.582C-0.109984 60.1279 8.98387 51.7358 24.2878 46.3586C24.7778 43.2149 25.878 40.2732 27.4635 37.6585L23.9279 30.1148C22.5874 27.2546 23.9777 26.0791 26.5775 27.8732L32.3708 31.871ZM110 52.9245V80.167C99.7211 83.6898 85.6795 85.6407 72.0003 85.7947V52.9245V31.2081C72.0897 20.1845 80.5894 11.324 91.0003 11.324C101.411 11.324 109.911 20.1845 110 31.2081L110 52.9245ZM115 55.4014C121.521 58.3963 125.607 62.224 125.607 66.7945C125.607 71.365 121.521 75.1927 115 78.1875V55.4014ZM115.807 104.415C126.483 97.4316 134.071 88.6342 137.782 80.5263C109.66 93.9709 88.9621 99.5896 57.9037 102.219C73.5623 105.132 92.6309 106.413 115.807 104.415ZM104.594 110.499C94.8494 114.807 83.4044 117.544 70.6272 117.544C51.2969 117.544 34.7619 112.057 22.5611 104.037C27.7093 103.886 32.5871 103.713 37.2324 103.506C56.5961 109.151 79.1966 111.751 104.594 110.499ZM8.77361 91.83C11.2368 94.8387 14.1831 97.7329 17.5666 100.425C20.4908 100.454 23.9207 100.466 27.7674 100.414C20.9701 97.9415 14.6313 95.0664 8.77361 91.83Z" fill="white"/>
<path d="M96.6528 29.8111C98.8482 29.8111 100.628 28.0313 100.628 25.836C100.628 23.6406 98.8482 21.8608 96.6528 21.8608C94.4575 21.8608 92.6777 23.6406 92.6777 25.836C92.6777 28.0313 94.4575 29.8111 96.6528 29.8111Z" fill="white"/>
<path d="M54.6528 49.8111C56.8482 49.8111 58.628 48.0313 58.628 45.836C58.628 43.6406 56.8482 41.8608 54.6528 41.8608C52.4575 41.8608 50.6777 43.6406 50.6777 45.836C50.6777 48.0313 52.4575 49.8111 54.6528 49.8111Z" fill="white"/>
</svg>
